<svg xmlns="http://www.w3.org/2000/svg" viewBox="0 0 24 24" width="576" height="576" shape-rendering="crispEdges"><defs><linearGradient id="bg" x1="0" y1="0" x2="0" y2="1"><stop offset="0%" stop-color="#0a3818"/><stop offset="100%" stop-color="#082810"/></linearGradient></defs><rect width="24" height="24" fill="url(#bg)"/><rect x="6" y="2" width="1" height="1" fill="#882020"/><rect x="17" y="2" width="1" height="1" fill="#882020"/><rect x="5" y="3" width="1" height="1" fill="#882020"/><rect x="6" y="3" width="1" height="1" fill="#882020"/><rect x="17" y="3" width="1" height="1" fill="#882020"/><rect x="18" y="3" width="1" height="1" fill="#882020"/><rect x="5" y="4" width="1" height="1" fill="#882020"/><rect x="6" y="4" width="1" height="1" fill="#882020"/><rect x="17" y="4" width="1" height="1" fill="#882020"/><rect x="18" y="4" width="1" height="1" fill="#882020"/><rect x="4" y="5" width="1" height="1" fill="#882020"/><rect x="5" y="5" width="1" height="1" fill="#c04040"/><rect x="6" y="5" width="1" height="1" fill="#882020"/><rect x="9" y="5" width="1" height="1" fill="#e8e4dc"/><rect x="10" y="5" width="1" height="1" fill="#e8e4dc"/><rect x="11" y="5" width="1" height="1" fill="#e8e4dc"/><rect x="12" y="5" width="1" height="1" fill="#e8e4dc"/><rect x="13" y="5" width="1" height="1" fill="#e8e4dc"/><rect x="14" y="5" width="1" height="1" fill="#e8e4dc"/><rect x="17" y="5" width="1" height="1" fill="#882020"/><rect x="18" y="5" width="1" height="1" fill="#c04040"/><rect x="19" y="5" width="1" height="1" fill="#882020"/><rect x="4" y="6" width="1" height="1" fill="#882020"/><rect x="5" y="6" width="1" height="1" fill="#882020"/><rect x="6" y="6" width="1" height="1" fill="#882020"/><rect x="8" y="6" width="1" height="1" fill="#e8e4dc"/><rect x="9" y="6" width="1" height="1" fill="#e8e4dc"/><rect x="10" y="6" width="1" height="1" fill="#e8e4dc"/><rect x="11" y="6" width="1" height="1" fill="#e8e4dc"/><rect x="12" y="6" width="1" height="1" fill="#e8e4dc"/><rect x="13" y="6" width="1" height="1" fill="#e8e4dc"/><rect x="14" y="6" width="1" height="1" fill="#e8e4dc"/><rect x="15" y="6" width="1" height="1" fill="#e8e4dc"/><rect x="17" y="6" width="1" height="1" fill="#882020"/><rect x="18" y="6" width="1" height="1" fill="#882020"/><rect x="19" y="6" width="1" height="1" fill="#882020"/><rect x="4" y="7" width="1" height="1" fill="#882020"/><rect x="5" y="7" width="1" height="1" fill="#882020"/><rect x="7" y="7" width="1" height="1" fill="#e8e4dc"/><rect x="8" y="7" width="1" height="1" fill="#e8e4dc"/><rect x="9" y="7" width="1" height="1" fill="#e8e4dc"/><rect x="10" y="7" width="1" height="1" fill="#e8e4dc"/><rect x="11" y="7" width="1" height="1" fill="#e8e4dc"/><rect x="12" y="7" width="1" height="1" fill="#e8e4dc"/><rect x="13" y="7" width="1" height="1" fill="#e8e4dc"/><rect x="14" y="7" width="1" height="1" fill="#e8e4dc"/><rect x="15" y="7" width="1" height="1" fill="#e8e4dc"/><rect x="16" y="7" width="1" height="1" fill="#e8e4dc"/><rect x="18" y="7" width="1" height="1" fill="#882020"/><rect x="19" y="7" width="1" height="1" fill="#882020"/><rect x="5" y="8" width="1" height="1" fill="#882020"/><rect x="6" y="8" width="1" height="1" fill="#e8e4dc"/><rect x="7" y="8" width="1" height="1" fill="#e8e4dc"/><rect x="8" y="8" width="1" height="1" fill="#e8e4dc"/><rect x="9" y="8" width="1" height="1" fill="#ffffff"/><rect x="10" y="8" width="1" height="1" fill="#e8e4dc"/><rect x="11" y="8" width="1" height="1" fill="#e8e4dc"/><rect x="12" y="8" width="1" height="1" fill="#e8e4dc"/><rect x="13" y="8" width="1" height="1" fill="#e8e4dc"/><rect x="14" y="8" width="1" height="1" fill="#ffffff"/><rect x="15" y="8" width="1" height="1" fill="#e8e4dc"/><rect x="16" y="8" width="1" height="1" fill="#e8e4dc"/><rect x="17" y="8" width="1" height="1" fill="#e8e4dc"/><rect x="18" y="8" width="1" height="1" fill="#882020"/><rect x="5" y="9" width="1" height="1" fill="#e8e4dc"/><rect x="6" y="9" width="1" height="1" fill="#e8e4dc"/><rect x="7" y="9" width="1" height="1" fill="#b8b2a8"/><rect x="8" y="9" width="1" height="1" fill="#e8e4dc"/><rect x="9" y="9" width="1" height="1" fill="#b8b2a8"/><rect x="10" y="9" width="1" height="1" fill="#b8b2a8"/><rect x="11" y="9" width="1" height="1" fill="#e8e4dc"/><rect x="12" y="9" width="1" height="1" fill="#e8e4dc"/><rect x="13" y="9" width="1" height="1" fill="#b8b2a8"/><rect x="14" y="9" width="1" height="1" fill="#b8b2a8"/><rect x="15" y="9" width="1" height="1" fill="#e8e4dc"/><rect x="16" y="9" width="1" height="1" fill="#b8b2a8"/><rect x="17" y="9" width="1" height="1" fill="#e8e4dc"/><rect x="18" y="9" width="1" height="1" fill="#e8e4dc"/><rect x="4" y="10" width="1" height="1" fill="#e8e4dc"/><rect x="5" y="10" width="1" height="1" fill="#e8e4dc"/><rect x="6" y="10" width="1" height="1" fill="#b8b2a8"/><rect x="7" y="10" width="1" height="1" fill="#b8b2a8"/><rect x="8" y="10" width="1" height="1" fill="#b8b2a8"/><rect x="11" y="10" width="1" height="1" fill="#b8b2a8"/><rect x="12" y="10" width="1" height="1" fill="#b8b2a8"/><rect x="15" y="10" width="1" height="1" fill="#b8b2a8"/><rect x="16" y="10" width="1" height="1" fill="#b8b2a8"/><rect x="17" y="10" width="1" height="1" fill="#b8b2a8"/><rect x="18" y="10" width="1" height="1" fill="#e8e4dc"/><rect x="19" y="10" width="1" height="1" fill="#e8e4dc"/><rect x="4" y="11" width="1" height="1" fill="#e8e4dc"/><rect x="5" y="11" width="1" height="1" fill="#b8b2a8"/><rect x="6" y="11" width="1" height="1" fill="#b8b2a8"/><rect x="7" y="11" width="1" height="1" fill="#b8b2a8"/><rect x="8" y="11" width="1" height="1" fill="#b8b2a8"/><rect x="11" y="11" width="1" height="1" fill="#b8b2a8"/><rect x="12" y="11" width="1" height="1" fill="#b8b2a8"/><rect x="15" y="11" width="1" height="1" fill="#b8b2a8"/><rect x="16" y="11" width="1" height="1" fill="#b8b2a8"/><rect x="17" y="11" width="1" height="1" fill="#b8b2a8"/><rect x="18" y="11" width="1" height="1" fill="#e8e4dc"/><rect x="19" y="11" width="1" height="1" fill="#e8e4dc"/><rect x="4" y="12" width="1" height="1" fill="#e8e4dc"/><rect x="5" y="12" width="1" height="1" fill="#b8b2a8"/><rect x="6" y="12" width="1" height="1" fill="#b8b2a8"/><rect x="7" y="12" width="1" height="1" fill="#b8b2a8"/><rect x="8" y="12" width="1" height="1" fill="#b8b2a8"/><rect x="9" y="12" width="1" height="1" fill="#b8b2a8"/><rect x="10" y="12" width="1" height="1" fill="#b8b2a8"/><rect x="11" y="12" width="1" height="1" fill="#b8b2a8"/><rect x="12" y="12" width="1" height="1" fill="#b8b2a8"/><rect x="13" y="12" width="1" height="1" fill="#b8b2a8"/><rect x="14" y="12" width="1" height="1" fill="#b8b2a8"/><rect x="15" y="12" width="1" height="1" fill="#b8b2a8"/><rect x="16" y="12" width="1" height="1" fill="#b8b2a8"/><rect x="17" y="12" width="1" height="1" fill="#b8b2a8"/><rect x="18" y="12" width="1" height="1" fill="#b8b2a8"/><rect x="19" y="12" width="1" height="1" fill="#e8e4dc"/><rect x="5" y="13" width="1" height="1" fill="#e8e4dc"/><rect x="6" y="13" width="1" height="1" fill="#b8b2a8"/><rect x="7" y="13" width="1" height="1" fill="#b8b2a8"/><rect x="8" y="13" width="1" height="1" fill="#b8b2a8"/><rect x="9" y="13" width="1" height="1" fill="#b8b2a8"/><rect x="10" y="13" width="1" height="1" fill="#f0c8c0"/><rect x="11" y="13" width="1" height="1" fill="#f0c8c0"/><rect x="12" y="13" width="1" height="1" fill="#f0c8c0"/><rect x="13" y="13" width="1" height="1" fill="#f0c8c0"/><rect x="14" y="13" width="1" height="1" fill="#f0c8c0"/><rect x="15" y="13" width="1" height="1" fill="#f0c8c0"/><rect x="16" y="13" width="1" height="1" fill="#b8b2a8"/><rect x="17" y="13" width="1" height="1" fill="#b8b2a8"/><rect x="18" y="13" width="1" height="1" fill="#e8e4dc"/><rect x="5" y="14" width="1" height="1" fill="#e8e4dc"/><rect x="6" y="14" width="1" height="1" fill="#e8e4dc"/><rect x="7" y="14" width="1" height="1" fill="#b8b2a8"/><rect x="8" y="14" width="1" height="1" fill="#f0c8c0"/><rect x="9" y="14" width="1" height="1" fill="#f0c8c0"/><rect x="10" y="14" width="1" height="1" fill="#f0c8c0"/><rect x="11" y="14" width="1" height="1" fill="#f0c8c0"/><rect x="12" y="14" width="1" height="1" fill="#f0c8c0"/><rect x="13" y="14" width="1" height="1" fill="#f0c8c0"/><rect x="14" y="14" width="1" height="1" fill="#f0c8c0"/><rect x="15" y="14" width="1" height="1" fill="#f0c8c0"/><rect x="16" y="14" width="1" height="1" fill="#f0c8c0"/><rect x="17" y="14" width="1" height="1" fill="#b8b2a8"/><rect x="18" y="14" width="1" height="1" fill="#e8e4dc"/><rect x="5" y="15" width="1" height="1" fill="#e8e4dc"/><rect x="6" y="15" width="1" height="1" fill="#b8b2a8"/><rect x="7" y="15" width="1" height="1" fill="#f0c8c0"/><rect x="8" y="15" width="1" height="1" fill="#f0c8c0"/><rect x="9" y="15" width="1" height="1" fill="#f0c8c0"/><rect x="10" y="15" width="1" height="1" fill="#181010"/><rect x="11" y="15" width="1" height="1" fill="#f0c8c0"/><rect x="12" y="15" width="1" height="1" fill="#f0c8c0"/><rect x="13" y="15" width="1" height="1" fill="#181010"/><rect x="14" y="15" width="1" height="1" fill="#f0c8c0"/><rect x="15" y="15" width="1" height="1" fill="#f0c8c0"/><rect x="16" y="15" width="1" height="1" fill="#f0c8c0"/><rect x="17" y="15" width="1" height="1" fill="#b8b2a8"/><rect x="18" y="15" width="1" height="1" fill="#e8e4dc"/><rect x="5" y="16" width="1" height="1" fill="#e8e4dc"/><rect x="6" y="16" width="1" height="1" fill="#e8e4dc"/><rect x="7" y="16" width="1" height="1" fill="#b8b2a8"/><rect x="8" y="16" width="1" height="1" fill="#f0c8c0"/><rect x="9" y="16" width="1" height="1" fill="#f0c8c0"/><rect x="10" y="16" width="1" height="1" fill="#f0c8c0"/><rect x="11" y="16" width="1" height="1" fill="#f0c8c0"/><rect x="12" y="16" width="1" height="1" fill="#f0c8c0"/><rect x="13" y="16" width="1" height="1" fill="#f0c8c0"/><rect x="14" y="16" width="1" height="1" fill="#f0c8c0"/><rect x="15" y="16" width="1" height="1" fill="#f0c8c0"/><rect x="16" y="16" width="1" height="1" fill="#f0c8c0"/><rect x="17" y="16" width="1" height="1" fill="#b8b2a8"/><rect x="18" y="16" width="1" height="1" fill="#e8e4dc"/><rect x="7" y="17" width="1" height="1" fill="#e8e4dc"/><rect x="8" y="17" width="1" height="1" fill="#b8b2a8"/><rect x="9" y="17" width="1" height="1" fill="#f0c8c0"/><rect x="10" y="17" width="1" height="1" fill="#281818"/><rect x="11" y="17" width="1" height="1" fill="#281818"/><rect x="12" y="17" width="1" height="1" fill="#281818"/><rect x="13" y="17" width="1" height="1" fill="#281818"/><rect x="14" y="17" width="1" height="1" fill="#f0c8c0"/><rect x="15" y="17" width="1" height="1" fill="#b8b2a8"/><rect x="16" y="17" width="1" height="1" fill="#e8e4dc"/><rect x="8" y="18" width="1" height="1" fill="#e8e4dc"/><rect x="9" y="18" width="1" height="1" fill="#b8b2a8"/><rect x="10" y="18" width="1" height="1" fill="#f0c8c0"/><rect x="11" y="18" width="1" height="1" fill="#f0c8c0"/><rect x="12" y="18" width="1" height="1" fill="#f0c8c0"/><rect x="13" y="18" width="1" height="1" fill="#f0c8c0"/><rect x="14" y="18" width="1" height="1" fill="#b8b2a8"/><rect x="15" y="18" width="1" height="1" fill="#e8e4dc"/><rect x="8" y="19" width="1" height="1" fill="#e8e4dc"/><rect x="9" y="19" width="1" height="1" fill="#e8e4dc"/><rect x="10" y="19" width="1" height="1" fill="#e8e4dc"/><rect x="11" y="19" width="1" height="1" fill="#e8e4dc"/><rect x="12" y="19" width="1" height="1" fill="#e8e4dc"/><rect x="13" y="19" width="1" height="1" fill="#e8e4dc"/><rect x="14" y="19" width="1" height="1" fill="#e8e4dc"/><rect x="15" y="19" width="1" height="1" fill="#e8e4dc"/><rect x="7" y="20" width="1" height="1" fill="#e8e4dc"/><rect x="8" y="20" width="1" height="1" fill="#e8e4dc"/><rect x="9" y="20" width="1" height="1" fill="#e8e4dc"/><rect x="10" y="20" width="1" height="1" fill="#e8e4dc"/><rect x="11" y="20" width="1" height="1" fill="#e8e4dc"/><rect x="12" y="20" width="1" height="1" fill="#e8e4dc"/><rect x="13" y="20" width="1" height="1" fill="#e8e4dc"/><rect x="14" y="20" width="1" height="1" fill="#e8e4dc"/><rect x="15" y="20" width="1" height="1" fill="#e8e4dc"/><rect x="16" y="20" width="1" height="1" fill="#e8e4dc"/><rect x="6" y="21" width="1" height="1" fill="#e8e4dc"/><rect x="7" y="21" width="1" height="1" fill="#e8e4dc"/><rect x="8" y="21" width="1" height="1" fill="#e8e4dc"/><rect x="9" y="21" width="1" height="1" fill="#e8e4dc"/><rect x="10" y="21" width="1" height="1" fill="#e8e4dc"/><rect x="11" y="21" width="1" height="1" fill="#e8e4dc"/><rect x="12" y="21" width="1" height="1" fill="#e8e4dc"/><rect x="13" y="21" width="1" height="1" fill="#e8e4dc"/><rect x="14" y="21" width="1" height="1" fill="#e8e4dc"/><rect x="15" y="21" width="1" height="1" fill="#e8e4dc"/><rect x="16" y="21" width="1" height="1" fill="#e8e4dc"/><rect x="17" y="21" width="1" height="1" fill="#e8e4dc"/><rect x="5" y="22" width="1" height="1" fill="#e8e4dc"/><rect x="6" y="22" width="1" height="1" fill="#e8e4dc"/><rect x="7" y="22" width="1" height="1" fill="#e8e4dc"/><rect x="8" y="22" width="1" height="1" fill="#e8e4dc"/><rect x="9" y="22" width="1" height="1" fill="#e8e4dc"/><rect x="10" y="22" width="1" height="1" fill="#e8e4dc"/><rect x="11" y="22" width="1" height="1" fill="#e8e4dc"/><rect x="12" y="22" width="1" height="1" fill="#e8e4dc"/><rect x="13" y="22" width="1" height="1" fill="#e8e4dc"/><rect x="14" y="22" width="1" height="1" fill="#e8e4dc"/><rect x="15" y="22" width="1" height="1" fill="#e8e4dc"/><rect x="16" y="22" width="1" height="1" fill="#e8e4dc"/><rect x="17" y="22" width="1" height="1" fill="#e8e4dc"/><rect x="18" y="22" width="1" height="1" fill="#e8e4dc"/><rect x="4" y="23" width="1" height="1" fill="#e8e4dc"/><rect x="5" y="23" width="1" height="1" fill="#e8e4dc"/><rect x="6" y="23" width="1" height="1" fill="#e8e4dc"/><rect x="7" y="23" width="1" height="1" fill="#e8e4dc"/><rect x="8" y="23" width="1" height="1" fill="#e8e4dc"/><rect x="9" y="23" width="1" height="1" fill="#e8e4dc"/><rect x="10" y="23" width="1" height="1" fill="#e8e4dc"/><rect x="11" y="23" width="1" height="1" fill="#e8e4dc"/><rect x="12" y="23" width="1" height="1" fill="#e8e4dc"/><rect x="13" y="23" width="1" height="1" fill="#e8e4dc"/><rect x="14" y="23" width="1" height="1" fill="#e8e4dc"/><rect x="15" y="23" width="1" height="1" fill="#e8e4dc"/><rect x="16" y="23" width="1" height="1" fill="#e8e4dc"/><rect x="17" y="23" width="1" height="1" fill="#e8e4dc"/><rect x="18" y="23" width="1" height="1" fill="#e8e4dc"/><rect x="19" y="23" width="1" height="1" fill="#e8e4dc"/><rect x="9" y="10" width="1" height="1" fill="#b8b2a8"/><rect x="10" y="10" width="1" height="1" fill="#181818"/><rect x="13" y="10" width="1" height="1" fill="#181818"/><rect x="14" y="10" width="1" height="1" fill="#b8b2a8"/><rect x="9" y="11" width="1" height="1" fill="#181818"/><rect x="10" y="11" width="1" height="1" fill="#ffffff"/><rect x="13" y="11" width="1" height="1" fill="#ffffff"/><rect x="14" y="11" width="1" height="1" fill="#181818"/><rect x="4" y="9" width="1" height="1" fill="#181818"/><rect x="5" y="9" width="1" height="1" fill="#181818"/><rect x="6" y="9" width="1" height="1" fill="#181818"/><rect x="7" y="9" width="1" height="1" fill="#181818"/><rect x="8" y="9" width="1" height="1" fill="#181818"/><rect x="9" y="9" width="1" height="1" fill="#181818"/><rect x="10" y="9" width="1" height="1" fill="#181818"/><rect x="11" y="9" width="1" height="1" fill="#181818"/><rect x="12" y="9" width="1" height="1" fill="#181818"/><rect x="13" y="9" width="1" height="1" fill="#181818"/><rect x="14" y="9" width="1" height="1" fill="#181818"/><rect x="15" y="9" width="1" height="1" fill="#181818"/><rect x="16" y="9" width="1" height="1" fill="#181818"/><rect x="17" y="9" width="1" height="1" fill="#181818"/><rect x="18" y="9" width="1" height="1" fill="#181818"/><rect x="19" y="9" width="1" height="1" fill="#181818"/><rect x="4" y="10" width="1" height="1" fill="#c81818"/><rect x="5" y="10" width="1" height="1" fill="#ff2828"/><rect x="6" y="10" width="1" height="1" fill="#ff5028"/><rect x="7" y="10" width="1" height="1" fill="#ff8020"/><rect x="8" y="10" width="1" height="1" fill="#ffb020"/><rect x="9" y="10" width="1" height="1" fill="#ffe028"/><rect x="10" y="10" width="1" height="1" fill="#a8d028"/><rect x="11" y="10" width="1" height="1" fill="#5cc028"/><rect x="12" y="10" width="1" height="1" fill="#28b8a0"/><rect x="13" y="10" width="1" height="1" fill="#28a8c8"/><rect x="14" y="10" width="1" height="1" fill="#2880d8"/><rect x="15" y="10" width="1" height="1" fill="#4068d0"/><rect x="16" y="10" width="1" height="1" fill="#6050c8"/><rect x="17" y="10" width="1" height="1" fill="#8040c0"/><rect x="18" y="10" width="1" height="1" fill="#a830b0"/><rect x="19" y="10" width="1" height="1" fill="#c8288c"/><rect x="4" y="11" width="1" height="1" fill="#c81818"/><rect x="5" y="11" width="1" height="1" fill="#ff2828"/><rect x="6" y="11" width="1" height="1" fill="#ff5028"/><rect x="7" y="11" width="1" height="1" fill="#ff8020"/><rect x="8" y="11" width="1" height="1" fill="#ffb020"/><rect x="9" y="11" width="1" height="1" fill="#ffe028"/><rect x="10" y="11" width="1" height="1" fill="#a8d028"/><rect x="13" y="11" width="1" height="1" fill="#28a8c8"/><rect x="14" y="11" width="1" height="1" fill="#2880d8"/><rect x="15" y="11" width="1" height="1" fill="#4068d0"/><rect x="16" y="11" width="1" height="1" fill="#6050c8"/><rect x="17" y="11" width="1" height="1" fill="#8040c0"/><rect x="18" y="11" width="1" height="1" fill="#a830b0"/><rect x="19" y="11" width="1" height="1" fill="#c8288c"/><rect x="11" y="11" width="1" height="1" fill="#181818"/><rect x="12" y="11" width="1" height="1" fill="#181818"/><rect x="4" y="12" width="1" height="1" fill="#181818"/><rect x="5" y="12" width="1" height="1" fill="#181818"/><rect x="6" y="12" width="1" height="1" fill="#181818"/><rect x="7" y="12" width="1" height="1" fill="#181818"/><rect x="8" y="12" width="1" height="1" fill="#181818"/><rect x="9" y="12" width="1" height="1" fill="#181818"/><rect x="10" y="12" width="1" height="1" fill="#181818"/><rect x="13" y="12" width="1" height="1" fill="#181818"/><rect x="14" y="12" width="1" height="1" fill="#181818"/><rect x="15" y="12" width="1" height="1" fill="#181818"/><rect x="16" y="12" width="1" height="1" fill="#181818"/><rect x="17" y="12" width="1" height="1" fill="#181818"/><rect x="18" y="12" width="1" height="1" fill="#181818"/><rect x="19" y="12" width="1" height="1" fill="#181818"/><rect x="3" y="9" width="1" height="1" fill="#181818"/><rect x="20" y="9" width="1" height="1" fill="#181818"/><rect x="3" y="10" width="1" height="1" fill="#181818"/><rect x="20" y="10" width="1" height="1" fill="#181818"/><rect x="3" y="11" width="1" height="1" fill="#181818"/><rect x="20" y="11" width="1" height="1" fill="#181818"/><rect x="12" y="3" width="1" height="1" fill="#ffe888"/><rect x="11" y="4" width="1" height="1" fill="#f0c850"/><rect x="12" y="4" width="1" height="1" fill="#ffe888"/><rect x="13" y="4" width="1" height="1" fill="#f0c850"/><rect x="12" y="5" width="1" height="1" fill="#f0c850"/><rect x="10" y="5" width="1" height="1" fill="#f0c850"/><rect x="9" y="6" width="1" height="1" fill="#f0c850"/><rect x="14" y="5" width="1" height="1" fill="#f0c850"/><rect x="15" y="6" width="1" height="1" fill="#f0c850"/><rect x="9" y="7" width="1" height="1" fill="#2860ff"/><rect x="9" y="8" width="1" height="1" fill="#1838c8"/><rect x="15" y="7" width="1" height="1" fill="#2860ff"/><rect x="15" y="8" width="1" height="1" fill="#1838c8"/><rect x="6" y="2" width="1" height="1" fill="#882020"/><rect x="17" y="2" width="1" height="1" fill="#882020"/><rect x="5" y="3" width="1" height="1" fill="#882020"/><rect x="6" y="3" width="1" height="1" fill="#882020"/><rect x="17" y="3" width="1" height="1" fill="#882020"/><rect x="18" y="3" width="1" height="1" fill="#882020"/><rect x="5" y="4" width="1" height="1" fill="#882020"/><rect x="6" y="4" width="1" height="1" fill="#882020"/><rect x="17" y="4" width="1" height="1" fill="#882020"/><rect x="18" y="4" width="1" height="1" fill="#882020"/><rect x="4" y="5" width="1" height="1" fill="#882020"/><rect x="5" y="5" width="1" height="1" fill="#c04040"/><rect x="6" y="5" width="1" height="1" fill="#882020"/><rect x="17" y="5" width="1" height="1" fill="#882020"/><rect x="18" y="5" width="1" height="1" fill="#c04040"/><rect x="19" y="5" width="1" height="1" fill="#882020"/><rect x="4" y="6" width="1" height="1" fill="#882020"/><rect x="5" y="6" width="1" height="1" fill="#882020"/><rect x="6" y="6" width="1" height="1" fill="#882020"/><rect x="17" y="6" width="1" height="1" fill="#882020"/><rect x="18" y="6" width="1" height="1" fill="#882020"/><rect x="19" y="6" width="1" height="1" fill="#882020"/><rect x="4" y="7" width="1" height="1" fill="#882020"/><rect x="5" y="7" width="1" height="1" fill="#882020"/><rect x="18" y="7" width="1" height="1" fill="#882020"/><rect x="19" y="7" width="1" height="1" fill="#882020"/><rect x="5" y="8" width="1" height="1" fill="#882020"/><rect x="18" y="8" width="1" height="1" fill="#882020"/></svg>